<svg width="94" height="95" viewBox="0 0 94 95" fill="none" xmlns="http://www.w3.org/2000/svg">
<g opacity="0.25">
<path d="M28 14.143C28 21.954 21.732 28.286 14 28.286C6.26802 28.286 0 21.954 0 14.143C0 6.33205 6.26802 0 14 0C21.732 0 28 6.33205 28 14.143Z" fill="url(#paint0_linear_1_58)"/>
<path fill-rule="evenodd" clip-rule="evenodd" d="M9.18813 24.0773C9.18813 24.0773 10.3736 24.1611 11.8985 24.0267C12.5161 23.9723 14.8609 23.742 16.614 23.3575C16.614 23.3575 18.7514 22.9001 19.8948 22.4787C21.0913 22.0378 21.7424 21.6636 22.0354 21.1333C22.0227 21.0247 22.1257 20.6394 21.5739 20.408C20.1633 19.8163 18.5273 19.9233 15.29 19.8547C11.7 19.7313 10.5058 19.1304 9.8696 18.6464C9.25955 18.1555 9.56631 16.7972 12.1802 15.6007C13.4969 14.9636 18.6585 13.7878 18.6585 13.7878C16.9202 12.9285 13.6787 11.418 13.0124 11.0918C12.428 10.8058 11.4928 10.375 11.2901 9.85387C11.0603 9.35355 11.8329 8.92256 12.2645 8.79914C13.6545 8.3982 15.6167 8.14901 17.4026 8.12103C18.3003 8.10697 18.446 8.04921 18.446 8.04921C19.6846 7.84375 20.5 6.99632 20.1602 5.65425C19.8553 4.28434 18.2468 3.4794 16.7182 3.75806C15.2788 4.02048 11.8093 5.02825 11.8093 5.02825C16.0978 4.99113 16.8156 5.06271 17.1361 5.51091C17.3255 5.7756 17.0501 6.13853 15.9064 6.32533C14.6613 6.52869 12.0729 6.77359 12.0729 6.77359C9.58993 6.92105 7.84089 6.93092 7.31632 8.04156C6.9736 8.76716 7.68178 9.40864 7.99217 9.81017C9.30384 11.2689 11.1985 12.0556 12.418 12.6349C12.8769 12.8529 14.2232 13.2646 14.2232 13.2646C10.2668 13.047 7.41282 14.2618 5.73869 15.6606C3.84519 17.412 4.68282 19.4996 8.56207 20.785C10.8533 21.5442 11.9896 21.9013 15.4074 21.5935C17.4204 21.485 17.7378 21.5496 17.7579 21.7147C17.7861 21.9473 15.5219 22.525 14.9037 22.7033C13.3312 23.1569 9.20877 24.0728 9.18813 24.0773Z" fill="white"/>
</g>
<g opacity="0.25">
<path d="M61 14.143C61 21.954 54.732 28.286 47 28.286C39.268 28.286 33 21.954 33 14.143C33 6.33205 39.268 0 47 0C54.732 0 61 6.33205 61 14.143Z" fill="url(#paint1_linear_1_58)"/>
<path fill-rule="evenodd" clip-rule="evenodd" d="M42.1881 24.0773C42.1881 24.0773 43.3736 24.1611 44.8985 24.0267C45.5161 23.9723 47.8609 23.742 49.614 23.3575C49.614 23.3575 51.7514 22.9001 52.8948 22.4787C54.0913 22.0378 54.7424 21.6636 55.0354 21.1333C55.0227 21.0247 55.1257 20.6394 54.5739 20.408C53.1633 19.8163 51.5273 19.9233 48.29 19.8547C44.7 19.7313 43.5058 19.1304 42.8696 18.6464C42.2596 18.1555 42.5663 16.7972 45.1802 15.6007C46.4969 14.9636 51.6585 13.7878 51.6585 13.7878C49.9202 12.9285 46.6787 11.418 46.0124 11.0918C45.428 10.8058 44.4928 10.375 44.2901 9.85387C44.0603 9.35355 44.8329 8.92256 45.2645 8.79914C46.6545 8.3982 48.6167 8.14901 50.4026 8.12103C51.3003 8.10697 51.446 8.04921 51.446 8.04921C52.6846 7.84375 53.5 6.99632 53.1602 5.65425C52.8553 4.28434 51.2468 3.4794 49.7182 3.75806C48.2788 4.02048 44.8093 5.02825 44.8093 5.02825C49.0978 4.99113 49.8156 5.06271 50.1361 5.51091C50.3255 5.7756 50.0501 6.13853 48.9064 6.32533C47.6613 6.52869 45.0729 6.77359 45.0729 6.77359C42.5899 6.92105 40.8409 6.93092 40.3163 8.04156C39.9736 8.76716 40.6818 9.40864 40.9922 9.81017C42.3038 11.2689 44.1985 12.0556 45.418 12.6349C45.8769 12.8529 47.2232 13.2646 47.2232 13.2646C43.2668 13.047 40.4128 14.2618 38.7387 15.6606C36.8452 17.412 37.6828 19.4996 41.5621 20.785C43.8533 21.5442 44.9896 21.9013 48.4074 21.5935C50.4204 21.485 50.7378 21.5496 50.7579 21.7147C50.7861 21.9473 48.5219 22.525 47.9037 22.7033C46.3312 23.1569 42.2088 24.0728 42.1881 24.0773Z" fill="white"/>
</g>
<g opacity="0.25">
<path d="M94 14.143C94 21.954 87.732 28.286 80 28.286C72.268 28.286 66 21.954 66 14.143C66 6.33205 72.268 0 80 0C87.732 0 94 6.33205 94 14.143Z" fill="url(#paint2_linear_1_58)"/>
<path fill-rule="evenodd" clip-rule="evenodd" d="M75.1881 24.0773C75.1881 24.0773 76.3736 24.1611 77.8985 24.0267C78.5161 23.9723 80.8609 23.742 82.614 23.3575C82.614 23.3575 84.7514 22.9001 85.8948 22.4787C87.0913 22.0378 87.7424 21.6636 88.0354 21.1333C88.0227 21.0247 88.1257 20.6394 87.5739 20.408C86.1633 19.8163 84.5273 19.9233 81.29 19.8547C77.7 19.7313 76.5058 19.1304 75.8696 18.6464C75.2596 18.1555 75.5663 16.7972 78.1802 15.6007C79.4969 14.9636 84.6585 13.7878 84.6585 13.7878C82.9202 12.9285 79.6787 11.418 79.0124 11.0918C78.428 10.8058 77.4928 10.375 77.2901 9.85387C77.0603 9.35355 77.8329 8.92256 78.2645 8.79914C79.6545 8.3982 81.6167 8.14901 83.4026 8.12103C84.3003 8.10697 84.446 8.04921 84.446 8.04921C85.6846 7.84375 86.5 6.99632 86.1602 5.65425C85.8553 4.28434 84.2468 3.4794 82.7182 3.75806C81.2788 4.02048 77.8093 5.02825 77.8093 5.02825C82.0978 4.99113 82.8156 5.06271 83.1361 5.51091C83.3255 5.7756 83.0501 6.13853 81.9064 6.32533C80.6613 6.52869 78.0729 6.77359 78.0729 6.77359C75.5899 6.92105 73.8409 6.93092 73.3163 8.04156C72.9736 8.76716 73.6818 9.40864 73.9922 9.81017C75.3038 11.2689 77.1985 12.0556 78.418 12.6349C78.8769 12.8529 80.2232 13.2646 80.2232 13.2646C76.2668 13.047 73.4128 14.2618 71.7387 15.6606C69.8452 17.412 70.6828 19.4996 74.5621 20.785C76.8533 21.5442 77.9896 21.9013 81.4074 21.5935C83.4204 21.485 83.7378 21.5496 83.7579 21.7147C83.7861 21.9473 81.5219 22.525 80.9037 22.7033C79.3312 23.1569 75.2088 24.0728 75.1881 24.0773Z" fill="white"/>
</g>
<path d="M94 47.4291C94 55.24 87.732 61.5721 80 61.5721C72.268 61.5721 66 55.24 66 47.4291C66 39.6181 72.268 33.286 80 33.286C87.732 33.286 94 39.6181 94 47.4291Z" fill="url(#paint3_linear_1_58)"/>
<path fill-rule="evenodd" clip-rule="evenodd" d="M75.1881 57.3633C75.1881 57.3633 76.3736 57.4472 77.8985 57.3128C78.5161 57.2584 80.8609 57.028 82.614 56.6436C82.614 56.6436 84.7514 56.1862 85.8948 55.7648C87.0913 55.3238 87.7424 54.9496 88.0354 54.4194C88.0227 54.3107 88.1257 53.9254 87.5739 53.694C86.1633 53.1023 84.5273 53.2093 81.29 53.1407C77.7 53.0174 76.5058 52.4165 75.8696 51.9325C75.2596 51.4415 75.5663 50.0832 78.1802 48.8867C79.4969 48.2496 84.6585 47.0738 84.6585 47.0738C82.9202 46.2146 79.6787 44.7041 79.0124 44.3779C78.428 44.0918 77.4928 43.6611 77.2901 43.1399C77.0603 42.6396 77.8329 42.2086 78.2645 42.0852C79.6545 41.6842 81.6167 41.435 83.4026 41.4071C84.3003 41.393 84.446 41.3353 84.446 41.3353C85.6846 41.1298 86.5 40.2824 86.1602 38.9403C85.8553 37.5704 84.2468 36.7654 82.7182 37.0441C81.2788 37.3065 77.8093 38.3143 77.8093 38.3143C82.0978 38.2772 82.8156 38.3488 83.1361 38.7969C83.3255 39.0616 83.0501 39.4246 81.9064 39.6114C80.6613 39.8147 78.0729 40.0596 78.0729 40.0596C75.5899 40.2071 73.8409 40.217 73.3163 41.3276C72.9736 42.0532 73.6818 42.6947 73.9922 43.0962C75.3038 44.5549 77.1985 45.3416 78.418 45.921C78.8769 46.139 80.2232 46.5506 80.2232 46.5506C76.2668 46.333 73.4128 47.5479 71.7387 48.9466C69.8452 50.698 70.6828 52.7856 74.5621 54.071C76.8533 54.8302 77.9896 55.1873 81.4074 54.8795C83.4204 54.771 83.7378 54.8356 83.7579 55.0008C83.7861 55.2333 81.5219 55.811 80.9037 55.9893C79.3312 56.4429 75.2088 57.3589 75.1881 57.3633Z" fill="white"/>
<path d="M61 47.4291C61 55.24 54.732 61.5721 47 61.5721C39.268 61.5721 33 55.24 33 47.4291C33 39.6181 39.268 33.286 47 33.286C54.732 33.286 61 39.6181 61 47.4291Z" fill="url(#paint4_linear_1_58)"/>
<path fill-rule="evenodd" clip-rule="evenodd" d="M42.1881 57.3633C42.1881 57.3633 43.3736 57.4472 44.8985 57.3128C45.5161 57.2584 47.8609 57.028 49.614 56.6436C49.614 56.6436 51.7514 56.1862 52.8948 55.7648C54.0913 55.3238 54.7424 54.9496 55.0354 54.4194C55.0227 54.3107 55.1257 53.9254 54.5739 53.694C53.1633 53.1023 51.5273 53.2093 48.29 53.1407C44.7 53.0174 43.5058 52.4165 42.8696 51.9325C42.2596 51.4415 42.5663 50.0832 45.1802 48.8867C46.4969 48.2496 51.6585 47.0738 51.6585 47.0738C49.9202 46.2146 46.6787 44.7041 46.0124 44.3779C45.428 44.0918 44.4928 43.6611 44.2901 43.1399C44.0603 42.6396 44.8329 42.2086 45.2645 42.0852C46.6545 41.6842 48.6167 41.435 50.4026 41.4071C51.3003 41.393 51.446 41.3353 51.446 41.3353C52.6846 41.1298 53.5 40.2824 53.1602 38.9403C52.8553 37.5704 51.2468 36.7654 49.7182 37.0441C48.2788 37.3065 44.8093 38.3143 44.8093 38.3143C49.0978 38.2772 49.8156 38.3488 50.1361 38.7969C50.3255 39.0616 50.0501 39.4246 48.9064 39.6114C47.6613 39.8147 45.0729 40.0596 45.0729 40.0596C42.5899 40.2071 40.8409 40.217 40.3163 41.3276C39.9736 42.0532 40.6818 42.6947 40.9922 43.0962C42.3038 44.5549 44.1985 45.3416 45.418 45.921C45.8769 46.139 47.2232 46.5506 47.2232 46.5506C43.2668 46.333 40.4128 47.5479 38.7387 48.9466C36.8452 50.698 37.6828 52.7856 41.5621 54.071C43.8533 54.8302 44.9896 55.1873 48.4074 54.8795C50.4204 54.771 50.7378 54.8356 50.7579 55.0008C50.7861 55.2333 48.5219 55.811 47.9037 55.9893C46.3312 56.4429 42.2088 57.3589 42.1881 57.3633Z" fill="white"/>
<path d="M28 47.4291C28 55.24 21.732 61.5721 14 61.5721C6.26802 61.5721 0 55.24 0 47.4291C0 39.6181 6.26802 33.286 14 33.286C21.732 33.286 28 39.6181 28 47.4291Z" fill="url(#paint5_linear_1_58)"/>
<path fill-rule="evenodd" clip-rule="evenodd" d="M9.18813 57.3633C9.18813 57.3633 10.3736 57.4472 11.8985 57.3128C12.5161 57.2584 14.8609 57.028 16.614 56.6436C16.614 56.6436 18.7514 56.1862 19.8948 55.7648C21.0913 55.3238 21.7424 54.9496 22.0354 54.4194C22.0227 54.3107 22.1257 53.9254 21.5739 53.694C20.1633 53.1023 18.5273 53.2093 15.29 53.1407C11.7 53.0174 10.5058 52.4165 9.8696 51.9325C9.25955 51.4415 9.56631 50.0832 12.1802 48.8867C13.4969 48.2496 18.6585 47.0738 18.6585 47.0738C16.9202 46.2146 13.6787 44.7041 13.0124 44.3779C12.428 44.0918 11.4928 43.6611 11.2901 43.1399C11.0603 42.6396 11.8329 42.2086 12.2645 42.0852C13.6545 41.6842 15.6167 41.435 17.4026 41.4071C18.3003 41.393 18.446 41.3353 18.446 41.3353C19.6846 41.1298 20.5 40.2824 20.1602 38.9403C19.8553 37.5704 18.2468 36.7654 16.7182 37.0441C15.2788 37.3065 11.8093 38.3143 11.8093 38.3143C16.0978 38.2772 16.8156 38.3488 17.1361 38.7969C17.3255 39.0616 17.0501 39.4246 15.9064 39.6114C14.6613 39.8147 12.0729 40.0596 12.0729 40.0596C9.58993 40.2071 7.84089 40.217 7.31632 41.3276C6.9736 42.0532 7.68178 42.6947 7.99217 43.0962C9.30384 44.5549 11.1985 45.3416 12.418 45.921C12.8769 46.139 14.2232 46.5506 14.2232 46.5506C10.2668 46.333 7.41282 47.5479 5.73869 48.9466C3.84519 50.698 4.68282 52.7856 8.56207 54.071C10.8533 54.8302 11.9896 55.1873 15.4074 54.8795C17.4204 54.771 17.7378 54.8356 17.7579 55.0008C17.7861 55.2333 15.5219 55.811 14.9037 55.9893C13.3312 56.4429 9.20877 57.3589 9.18813 57.3633Z" fill="white"/>
<g opacity="0.25">
<path d="M28 80.7151C28 88.5261 21.732 94.8581 14 94.8581C6.26802 94.8581 0 88.5261 0 80.7151C0 72.9041 6.26802 66.5721 14 66.5721C21.732 66.5721 28 72.9041 28 80.7151Z" fill="url(#paint6_linear_1_58)"/>
<path fill-rule="evenodd" clip-rule="evenodd" d="M9.18813 90.6494C9.18813 90.6494 10.3736 90.7332 11.8985 90.5988C12.5161 90.5444 14.8609 90.3141 16.614 89.9296C16.614 89.9296 18.7514 89.4722 19.8948 89.0508C21.0913 88.6099 21.7424 88.2357 22.0354 87.7054C22.0227 87.5967 22.1257 87.2115 21.5739 86.98C20.1633 86.3884 18.5273 86.4954 15.29 86.4268C11.7 86.3034 10.5058 85.7025 9.8696 85.2185C9.25955 84.7276 9.56631 83.3692 12.1802 82.1728C13.4969 81.5356 18.6585 80.3599 18.6585 80.3599C16.9202 79.5006 13.6787 77.9901 13.0124 77.6639C12.428 77.3779 11.4928 76.9471 11.2901 76.4259C11.0603 75.9256 11.8329 75.4946 12.2645 75.3712C13.6545 74.9703 15.6167 74.7211 17.4026 74.6931C18.3003 74.6791 18.446 74.6213 18.446 74.6213C19.6846 74.4158 20.5 73.5684 20.1602 72.2263C19.8553 70.8564 18.2468 70.0515 16.7182 70.3301C15.2788 70.5926 11.8093 71.6003 11.8093 71.6003C16.0978 71.5632 16.8156 71.6348 17.1361 72.083C17.3255 72.3477 17.0501 72.7106 15.9064 72.8974C14.6613 73.1008 12.0729 73.3457 12.0729 73.3457C9.58993 73.4931 7.84089 73.503 7.31632 74.6136C6.9736 75.3392 7.68178 75.9807 7.99217 76.3823C9.30384 77.841 11.1985 78.6277 12.418 79.207C12.8769 79.425 14.2232 79.8367 14.2232 79.8367C10.2668 79.6191 7.41282 80.8339 5.73869 82.2327C3.84519 83.9841 4.68282 86.0717 8.56207 87.3571C10.8533 88.1163 11.9896 88.4733 15.4074 88.1656C17.4204 88.0571 17.7378 88.1216 17.7579 88.2868C17.7861 88.5194 15.5219 89.0971 14.9037 89.2754C13.3312 89.729 9.20877 90.6449 9.18813 90.6494Z" fill="white"/>
</g>
<path d="M61 80.7151C61 88.5261 54.732 94.8581 47 94.8581C39.268 94.8581 33 88.5261 33 80.7151C33 72.9041 39.268 66.5721 47 66.5721C54.732 66.5721 61 72.9041 61 80.7151Z" fill="url(#paint7_linear_1_58)"/>
<path fill-rule="evenodd" clip-rule="evenodd" d="M42.1881 90.6494C42.1881 90.6494 43.3736 90.7332 44.8985 90.5988C45.5161 90.5444 47.8609 90.3141 49.614 89.9296C49.614 89.9296 51.7514 89.4722 52.8948 89.0508C54.0913 88.6099 54.7424 88.2357 55.0354 87.7054C55.0227 87.5967 55.1257 87.2115 54.5739 86.98C53.1633 86.3884 51.5273 86.4954 48.29 86.4268C44.7 86.3034 43.5058 85.7025 42.8696 85.2185C42.2596 84.7276 42.5663 83.3692 45.1802 82.1728C46.4969 81.5356 51.6585 80.3599 51.6585 80.3599C49.9202 79.5006 46.6787 77.9901 46.0124 77.6639C45.428 77.3779 44.4928 76.9471 44.2901 76.4259C44.0603 75.9256 44.8329 75.4946 45.2645 75.3712C46.6545 74.9703 48.6167 74.7211 50.4026 74.6931C51.3003 74.6791 51.446 74.6213 51.446 74.6213C52.6846 74.4158 53.5 73.5684 53.1602 72.2263C52.8553 70.8564 51.2468 70.0515 49.7182 70.3301C48.2788 70.5926 44.8093 71.6003 44.8093 71.6003C49.0978 71.5632 49.8156 71.6348 50.1361 72.083C50.3255 72.3477 50.0501 72.7106 48.9064 72.8974C47.6613 73.1008 45.0729 73.3457 45.0729 73.3457C42.5899 73.4931 40.8409 73.503 40.3163 74.6136C39.9736 75.3392 40.6818 75.9807 40.9922 76.3823C42.3038 77.841 44.1985 78.6277 45.418 79.207C45.8769 79.425 47.2232 79.8367 47.2232 79.8367C43.2668 79.6191 40.4128 80.8339 38.7387 82.2327C36.8452 83.9841 37.6828 86.0717 41.5621 87.3571C43.8533 88.1163 44.9896 88.4733 48.4074 88.1656C50.4204 88.0571 50.7378 88.1216 50.7579 88.2868C50.7861 88.5194 48.5219 89.0971 47.9037 89.2754C46.3312 89.729 42.2088 90.6449 42.1881 90.6494Z" fill="white"/>
<g opacity="0.25">
<path d="M94 80.7151C94 88.5261 87.732 94.8581 80 94.8581C72.268 94.8581 66 88.5261 66 80.7151C66 72.9041 72.268 66.5721 80 66.5721C87.732 66.5721 94 72.9041 94 80.7151Z" fill="url(#paint8_linear_1_58)"/>
<path fill-rule="evenodd" clip-rule="evenodd" d="M75.1881 90.6494C75.1881 90.6494 76.3736 90.7332 77.8985 90.5988C78.5161 90.5444 80.8609 90.3141 82.614 89.9296C82.614 89.9296 84.7514 89.4722 85.8948 89.0508C87.0913 88.6099 87.7424 88.2357 88.0354 87.7054C88.0227 87.5967 88.1257 87.2115 87.5739 86.98C86.1633 86.3884 84.5273 86.4954 81.29 86.4268C77.7 86.3034 76.5058 85.7025 75.8696 85.2185C75.2596 84.7276 75.5663 83.3692 78.1802 82.1728C79.4969 81.5356 84.6585 80.3599 84.6585 80.3599C82.9202 79.5006 79.6787 77.9901 79.0124 77.6639C78.428 77.3779 77.4928 76.9471 77.2901 76.4259C77.0603 75.9256 77.8329 75.4946 78.2645 75.3712C79.6545 74.9703 81.6167 74.7211 83.4026 74.6931C84.3003 74.6791 84.446 74.6213 84.446 74.6213C85.6846 74.4158 86.5 73.5684 86.1602 72.2263C85.8553 70.8564 84.2468 70.0515 82.7182 70.3301C81.2788 70.5926 77.8093 71.6003 77.8093 71.6003C82.0978 71.5632 82.8156 71.6348 83.1361 72.083C83.3255 72.3477 83.0501 72.7106 81.9064 72.8974C80.6613 73.1008 78.0729 73.3457 78.0729 73.3457C75.5899 73.4931 73.8409 73.503 73.3163 74.6136C72.9736 75.3392 73.6818 75.9807 73.9922 76.3823C75.3038 77.841 77.1985 78.6277 78.418 79.207C78.8769 79.425 80.2232 79.8367 80.2232 79.8367C76.2668 79.6191 73.4128 80.8339 71.7387 82.2327C69.8452 83.9841 70.6828 86.0717 74.5621 87.3571C76.8533 88.1163 77.9896 88.4733 81.4074 88.1656C83.4204 88.0571 83.7378 88.1216 83.7579 88.2868C83.7861 88.5194 81.5219 89.0971 80.9037 89.2754C79.3312 89.729 75.2088 90.6449 75.1881 90.6494Z" fill="white"/>
</g>
<defs>
<linearGradient id="paint0_linear_1_58" x1="7.03934" y1="5.69581" x2="24.6256" y2="29.6188" gradientUnits="userSpaceOnUse">
<stop stop-color="#8381C5"/>
<stop offset="0.566394" stop-color="#7E55B3" stop-opacity="0.996078"/>
<stop offset="1" stop-color="#A52ECB" stop-opacity="0.992157"/>
</linearGradient>
<linearGradient id="paint1_linear_1_58" x1="40.0393" y1="5.69581" x2="57.6256" y2="29.6188" gradientUnits="userSpaceOnUse">
<stop stop-color="#8381C5"/>
<stop offset="0.566394" stop-color="#7E55B3" stop-opacity="0.996078"/>
<stop offset="1" stop-color="#A52ECB" stop-opacity="0.992157"/>
</linearGradient>
<linearGradient id="paint2_linear_1_58" x1="73.0393" y1="5.69581" x2="90.6256" y2="29.6188" gradientUnits="userSpaceOnUse">
<stop stop-color="#8381C5"/>
<stop offset="0.566394" stop-color="#7E55B3" stop-opacity="0.996078"/>
<stop offset="1" stop-color="#A52ECB" stop-opacity="0.992157"/>
</linearGradient>
<linearGradient id="paint3_linear_1_58" x1="73.0393" y1="38.9819" x2="90.6256" y2="62.9048" gradientUnits="userSpaceOnUse">
<stop stop-color="#8381C5"/>
<stop offset="0.566394" stop-color="#7E55B3" stop-opacity="0.996078"/>
<stop offset="1" stop-color="#A52ECB" stop-opacity="0.992157"/>
</linearGradient>
<linearGradient id="paint4_linear_1_58" x1="40.0393" y1="38.9819" x2="57.6256" y2="62.9048" gradientUnits="userSpaceOnUse">
<stop stop-color="#8381C5"/>
<stop offset="0.566394" stop-color="#7E55B3" stop-opacity="0.996078"/>
<stop offset="1" stop-color="#A52ECB" stop-opacity="0.992157"/>
</linearGradient>
<linearGradient id="paint5_linear_1_58" x1="7.03934" y1="38.9819" x2="24.6256" y2="62.9048" gradientUnits="userSpaceOnUse">
<stop stop-color="#8381C5"/>
<stop offset="0.566394" stop-color="#7E55B3" stop-opacity="0.996078"/>
<stop offset="1" stop-color="#A52ECB" stop-opacity="0.992157"/>
</linearGradient>
<linearGradient id="paint6_linear_1_58" x1="7.03934" y1="72.2679" x2="24.6256" y2="96.1909" gradientUnits="userSpaceOnUse">
<stop stop-color="#8381C5"/>
<stop offset="0.566394" stop-color="#7E55B3" stop-opacity="0.996078"/>
<stop offset="1" stop-color="#A52ECB" stop-opacity="0.992157"/>
</linearGradient>
<linearGradient id="paint7_linear_1_58" x1="40.0393" y1="72.2679" x2="57.6256" y2="96.1909" gradientUnits="userSpaceOnUse">
<stop stop-color="#8381C5"/>
<stop offset="0.566394" stop-color="#7E55B3" stop-opacity="0.996078"/>
<stop offset="1" stop-color="#A52ECB" stop-opacity="0.992157"/>
</linearGradient>
<linearGradient id="paint8_linear_1_58" x1="73.0393" y1="72.2679" x2="90.6256" y2="96.1909" gradientUnits="userSpaceOnUse">
<stop stop-color="#8381C5"/>
<stop offset="0.566394" stop-color="#7E55B3" stop-opacity="0.996078"/>
<stop offset="1" stop-color="#A52ECB" stop-opacity="0.992157"/>
</linearGradient>
</defs>
</svg>
